<?xml version="1.0" encoding="UTF-8" standalone="no"?>
<svg
   width="269.78601"
   height="60"
   viewBox="0 0 269.78601 60"
   fill="none"
   version="1.1"
   id="svg4"
   sodipodi:docname="icon-text-white.svg"
   inkscape:version="1.4.2 (ebf0e940d0, 2025-05-08)"
   xmlns:inkscape="http://www.inkscape.org/namespaces/inkscape"
   xmlns:sodipodi="http://sodipodi.sourceforge.net/DTD/sodipodi-0.dtd"
   xmlns="http://www.w3.org/2000/svg"
   xmlns:svg="http://www.w3.org/2000/svg">
  <sodipodi:namedview
     id="namedview4"
     pagecolor="#505050"
     bordercolor="#eeeeee"
     borderopacity="1"
     inkscape:showpageshadow="0"
     inkscape:pageopacity="0"
     inkscape:pagecheckerboard="0"
     inkscape:deskcolor="#505050"
     inkscape:zoom="8.4276094"
     inkscape:cx="63.125849"
     inkscape:cy="29.486416"
     inkscape:window-width="2648"
     inkscape:window-height="1418"
     inkscape:window-x="0"
     inkscape:window-y="0"
     inkscape:window-maximized="1"
     inkscape:current-layer="svg4" />
  <path
     d="M 86.176,55 V 4.6 h 25.776 c 2.592,0 4.968,0.408 7.128,1.224 2.208,0.768 4.08,1.872 5.616,3.312 1.584,1.392 2.808,3.072 3.672,5.04 0.912,1.968 1.368,4.128 1.368,6.48 0,3.168 -0.864,6 -2.592,8.496 -1.728,2.496 -4.008,4.392 -6.84,5.688 L 131.32,55 H 117.496 L 107.992,36.64 H 98.56 V 55 Z M 110.8,15.184 H 98.56 V 26.56 h 12.24 c 1.92,0 3.456,-0.528 4.608,-1.584 1.2,-1.056 1.8,-2.424 1.8,-4.104 0,-1.68 -0.6,-3.048 -1.8,-4.104 -1.152,-1.056 -2.688,-1.584 -4.608,-1.584 z M 136.098,55 V 4.6 h 39.744 v 10.728 h -27.36 V 24.4 h 18.072 v 10.368 h -18.072 v 9.504 H 176.13 V 55 Z m 43.144,-7.704 6.912,-9 c 3.024,2.448 5.856,4.224 8.496,5.328 2.64,1.104 5.4,1.656 8.28,1.656 2.832,0 5.04,-0.432 6.624,-1.296 1.632,-0.864 2.448,-2.064 2.448,-3.6 0,-1.392 -0.552,-2.472 -1.656,-3.24 -1.056,-0.768 -2.832,-1.368 -5.328,-1.8 L 193.93,33.4 c -4.08,-0.72 -7.224,-2.28 -9.432,-4.68 -2.208,-2.4 -3.312,-5.448 -3.312,-9.144 0,-4.848 1.824,-8.664 5.472,-11.448 3.696,-2.832 8.76,-4.248 15.192,-4.248 3.744,0 7.512,0.648 11.304,1.944 3.84,1.296 7.128,3.048 9.864,5.256 l -6.552,9.144 c -2.64,-2.064 -5.232,-3.576 -7.776,-4.536 -2.496,-0.96 -5.064,-1.44 -7.704,-1.44 -2.496,0 -4.488,0.408 -5.976,1.224 -1.44,0.768 -2.16,1.824 -2.16,3.168 0,1.248 0.456,2.232 1.368,2.952 0.96,0.672 2.496,1.176 4.608,1.512 l 10.44,1.728 c 4.848,0.768 8.52,2.376 11.016,4.824 2.544,2.448 3.816,5.616 3.816,9.504 0,5.088 -1.992,9.12 -5.976,12.096 -3.936,2.976 -9.312,4.464 -16.128,4.464 -4.032,0 -8.064,-0.744 -12.096,-2.232 C 185.914,52 182.362,49.936 179.242,47.296 Z M 229.754,55 V 4.6 h 40.032 V 15.328 H 242.138 V 24.76 H 260.57 V 35.128 H 242.138 V 55 Z"
     fill="#ffffff"
     id="path1" />
  <path
     fill-rule="evenodd"
     clip-rule="evenodd"
     d="m 0,0 h 60 v 37.146 l -4.0825,-4.0827 -5.1991,-5.1991 -2e-4,-10e-5 -5.1992,5.1992 2e-4,1e-4 -1.7332,1.7331 -8.6652,-8.6652 10e-5,-10e-5 -5.1992,-5.1991 v 0 l -2e-4,-10e-5 -5.1991,5.1991 10e-5,2e-4 -1.7328,1.7328 L 9.1254,13.9998 9.12522,13.9999 3.92627,19.1989 0,23.1252 Z M 50.7183,38.2625 28.9808,60 H 60 V 47.5442 Z M 29.9217,31.3304 38.5869,39.9956 18.5826,60 H 1.25205 L 22.9897,38.2624 28.1889,33.0632 Z M 9.1254,24.398 0,33.5234 V 50.8538 L 17.7906,33.0632 Z"
     fill="url(#paint0_linear_805_323)"
     id="path2"
     style="fill:url(#paint0_linear_805_323)" />
  <defs
     id="defs4">
    <linearGradient
       id="paint0_linear_805_323"
       x1="0"
       y1="18"
       x2="60"
       y2="78"
       gradientUnits="userSpaceOnUse"
       gradientTransform="translate(0,-18)">
      <stop
         stop-color="#10B981"
         id="stop3" />
      <stop
         offset="1"
         stop-color="#1054B9"
         id="stop4" />
    </linearGradient>
  </defs>
</svg>
