<svg width="297" height="95" viewBox="0 0 297 95" fill="none" xmlns="http://www.w3.org/2000/svg">
<path d="M86.176 73V22.6H111.952C114.544 22.6 116.92 23.008 119.08 23.824C121.288 24.592 123.16 25.696 124.696 27.136C126.28 28.528 127.504 30.208 128.368 32.176C129.28 34.144 129.736 36.304 129.736 38.656C129.736 41.824 128.872 44.656 127.144 47.152C125.416 49.648 123.136 51.544 120.304 52.84L131.32 73H117.496L107.992 54.64H98.56V73H86.176ZM110.8 33.184H98.56V44.56H110.8C112.72 44.56 114.256 44.032 115.408 42.976C116.608 41.92 117.208 40.552 117.208 38.872C117.208 37.192 116.608 35.824 115.408 34.768C114.256 33.712 112.72 33.184 110.8 33.184ZM136.098 73V22.6H175.842V33.328H148.482V42.4H166.554V52.768H148.482V62.272H176.13V73H136.098ZM179.242 65.296L186.154 56.296C189.178 58.744 192.01 60.52 194.65 61.624C197.29 62.728 200.05 63.28 202.93 63.28C205.762 63.28 207.97 62.848 209.554 61.984C211.186 61.12 212.002 59.92 212.002 58.384C212.002 56.992 211.45 55.912 210.346 55.144C209.29 54.376 207.514 53.776 205.018 53.344L193.93 51.4C189.85 50.68 186.706 49.12 184.498 46.72C182.29 44.32 181.186 41.272 181.186 37.576C181.186 32.728 183.01 28.912 186.658 26.128C190.354 23.296 195.418 21.88 201.85 21.88C205.594 21.88 209.362 22.528 213.154 23.824C216.994 25.12 220.282 26.872 223.018 29.08L216.466 38.224C213.826 36.16 211.234 34.648 208.69 33.688C206.194 32.728 203.626 32.248 200.986 32.248C198.49 32.248 196.498 32.656 195.01 33.472C193.57 34.24 192.85 35.296 192.85 36.64C192.85 37.888 193.306 38.872 194.218 39.592C195.178 40.264 196.714 40.768 198.826 41.104L209.266 42.832C214.114 43.6 217.786 45.208 220.282 47.656C222.826 50.104 224.098 53.272 224.098 57.16C224.098 62.248 222.106 66.28 218.122 69.256C214.186 72.232 208.81 73.72 201.994 73.72C197.962 73.72 193.93 72.976 189.898 71.488C185.914 70 182.362 67.936 179.242 65.296ZM229.754 73V22.6H269.786V33.328H242.138V42.76H260.57V53.128H242.138V73H229.754Z" fill="white"/>
<path fill-rule="evenodd" clip-rule="evenodd" d="M0 18H60V55.146L55.9175 51.0633L50.7184 45.8642L50.7182 45.8641L45.519 51.0633L45.5192 51.0634L43.786 52.7965L35.1208 44.1313L35.1209 44.1312L29.9217 38.9321L29.9217 38.9321L29.9215 38.932L24.7224 44.1311L24.7225 44.1313L22.9897 45.8641L9.1254 31.9998L9.12522 31.9999L3.92627 37.1989L0 41.1252V18ZM50.7183 56.2625L28.9808 78H60V65.5442L50.7183 56.2625ZM29.9217 49.3304L38.5869 57.9956L18.5826 78H1.25205L22.9897 56.2624L28.1889 51.0632L29.9217 49.3304ZM9.1254 42.398L0 51.5234V68.8538L17.7906 51.0632L9.1254 42.398Z" fill="url(#paint0_linear_805_323)"/>
<path d="M282.625 29.544V25.306H281.221V24.487H282.625V22.836L283.574 22.589V24.487H285.537V25.306H283.574V29.297C283.574 29.6437 283.652 29.895 283.808 30.051C283.964 30.1983 284.22 30.272 284.575 30.272C284.757 30.272 284.917 30.259 285.056 30.233C285.203 30.207 285.359 30.1637 285.524 30.103V30.948C285.359 31.0087 285.173 31.052 284.965 31.078C284.766 31.104 284.571 31.117 284.38 31.117C283.817 31.117 283.383 30.9827 283.08 30.714C282.777 30.4453 282.625 30.0553 282.625 29.544ZM286.567 31V24.487H287.529V25.202C287.772 24.9247 288.053 24.7167 288.374 24.578C288.695 24.4307 289.05 24.357 289.44 24.357C289.891 24.357 290.294 24.4653 290.649 24.682C291.013 24.89 291.295 25.176 291.494 25.54C291.763 25.1413 292.083 24.8467 292.456 24.656C292.837 24.4567 293.262 24.357 293.73 24.357C294.432 24.357 295.004 24.591 295.446 25.059C295.897 25.527 296.122 26.1337 296.122 26.879V31H295.173V27.074C295.173 26.502 295.021 26.047 294.718 25.709C294.415 25.371 294.003 25.202 293.483 25.202C293.128 25.202 292.803 25.293 292.508 25.475C292.213 25.657 291.962 25.9213 291.754 26.268C291.771 26.3633 291.784 26.463 291.793 26.567C291.81 26.6623 291.819 26.7663 291.819 26.879V31H290.87V27.074C290.87 26.502 290.718 26.047 290.415 25.709C290.112 25.371 289.704 25.202 289.193 25.202C288.846 25.202 288.53 25.2843 288.244 25.449C287.967 25.605 287.728 25.839 287.529 26.151V31H286.567Z" fill="white"/>
<defs>
<linearGradient id="paint0_linear_805_323" x1="0" y1="18" x2="60" y2="78" gradientUnits="userSpaceOnUse">
<stop stop-color="#10B981"/>
<stop offset="1" stop-color="#1054B9"/>
</linearGradient>
</defs>
</svg>
