<?xml version="1.0" encoding="UTF-8" standalone="no"?>
<svg
   width="1224"
   height="256"
   viewBox="0 0 1224 256"
   fill="none"
   version="1.1"
   id="svg13"
   sodipodi:docname="logo-text-white.svg"
   inkscape:version="1.4.2 (ebf0e940d0, 2025-05-08)"
   xmlns:inkscape="http://www.inkscape.org/namespaces/inkscape"
   xmlns:sodipodi="http://sodipodi.sourceforge.net/DTD/sodipodi-0.dtd"
   xmlns="http://www.w3.org/2000/svg"
   xmlns:svg="http://www.w3.org/2000/svg">
  <sodipodi:namedview
     id="namedview13"
     pagecolor="#505050"
     bordercolor="#eeeeee"
     borderopacity="1"
     inkscape:showpageshadow="0"
     inkscape:pageopacity="0"
     inkscape:pagecheckerboard="0"
     inkscape:deskcolor="#505050"
     inkscape:zoom="2.0449346"
     inkscape:cx="964.334"
     inkscape:cy="127.87695"
     inkscape:window-width="2648"
     inkscape:window-height="1418"
     inkscape:window-x="0"
     inkscape:window-y="0"
     inkscape:window-maximized="1"
     inkscape:current-layer="svg13" />
  <path
     d="M280.048 112V44.8H312.88C316.272 44.8 319.376 45.312 322.192 46.336C325.072 47.36 327.536 48.8 329.584 50.656C331.632 52.448 333.232 54.624 334.384 57.184C335.536 59.744 336.112 62.56 336.112 65.632C336.112 69.856 334.896 73.632 332.464 76.96C330.096 80.288 326.928 82.752 322.96 84.352L337.84 112H322.288L309.136 86.272H293.968V112H280.048ZM311.632 56.8H293.968V74.848H311.632C314.768 74.848 317.264 74.016 319.12 72.352C321.04 70.688 322 68.512 322 65.824C322 63.136 321.04 60.96 319.12 59.296C317.264 57.632 314.768 56.8 311.632 56.8ZM339.13 87.04C339.13 83.392 339.802 80 341.146 76.864C342.554 73.664 344.442 70.912 346.81 68.608C349.242 66.24 352.09 64.384 355.354 63.04C358.618 61.696 362.106 61.024 365.818 61.024C369.53 61.024 373.018 61.696 376.282 63.04C379.546 64.384 382.362 66.24 384.73 68.608C387.162 70.912 389.05 73.664 390.394 76.864C391.802 80 392.506 83.392 392.506 87.04C392.506 90.688 391.802 94.112 390.394 97.312C389.05 100.448 387.162 103.168 384.73 105.472C382.362 107.776 379.546 109.6 376.282 110.944C373.018 112.288 369.53 112.96 365.818 112.96C362.106 112.96 358.618 112.288 355.354 110.944C352.09 109.6 349.242 107.776 346.81 105.472C344.442 103.168 342.554 100.448 341.146 97.312C339.802 94.112 339.13 90.688 339.13 87.04ZM365.818 101.536C369.658 101.536 372.922 100.128 375.61 97.312C378.298 94.496 379.642 91.072 379.642 87.04C379.642 82.944 378.298 79.488 375.61 76.672C372.922 73.856 369.658 72.448 365.818 72.448C361.978 72.448 358.714 73.856 356.026 76.672C353.338 79.488 351.994 82.944 351.994 87.04C351.994 91.072 353.338 94.496 356.026 97.312C358.714 100.128 361.978 101.536 365.818 101.536ZM425.445 101.44C427.685 101.44 429.765 100.992 431.685 100.096C433.669 99.2 435.557 97.792 437.349 95.872L445.221 104.032C442.661 106.848 439.589 109.056 436.005 110.656C432.421 112.192 428.709 112.96 424.869 112.96C421.221 112.96 417.765 112.288 414.501 110.944C411.301 109.6 408.517 107.776 406.149 105.472C403.845 103.168 402.021 100.448 400.677 97.312C399.333 94.112 398.661 90.688 398.661 87.04C398.661 83.392 399.333 80 400.677 76.864C402.021 73.664 403.845 70.912 406.149 68.608C408.517 66.24 411.301 64.384 414.501 63.04C417.765 61.696 421.221 61.024 424.869 61.024C428.837 61.024 432.645 61.824 436.293 63.424C439.941 64.96 443.045 67.136 445.605 69.952L437.541 78.496C435.749 76.512 433.829 75.008 431.781 73.984C429.733 72.96 427.525 72.448 425.157 72.448C421.381 72.448 418.181 73.856 415.557 76.672C412.997 79.488 411.717 82.944 411.717 87.04C411.717 91.136 413.029 94.56 415.653 97.312C418.341 100.064 421.605 101.44 425.445 101.44ZM452.059 112V44.8L465.211 41.92V83.104L486.811 61.984H501.691L478.267 84.928L503.131 112H486.331L465.211 89.152V112H452.059ZM521.095 114.304L521.863 112.48L502.375 61.984H516.871L529.255 96.064L543.463 61.984H557.671L534.631 115.936C532.071 121.952 529.095 126.24 525.703 128.8C522.311 131.36 517.895 132.64 512.455 132.64C511.303 132.64 510.183 132.576 509.095 132.448C508.071 132.384 507.239 132.256 506.599 132.064V120.736C507.239 120.864 507.911 120.96 508.615 121.024C509.319 121.088 510.183 121.12 511.207 121.12C513.575 121.12 515.559 120.544 517.159 119.392C518.823 118.24 520.135 116.544 521.095 114.304ZM582.486 112V44.8H634.134V56.896H596.406V72.256H621.27V83.968H596.406V99.904H634.518V112H582.486ZM643.497 112V61.984H656.649V65.92C658.569 64.32 660.681 63.104 662.984 62.272C665.352 61.44 667.913 61.024 670.665 61.024C676.425 61.024 681.161 62.88 684.873 66.592C688.585 70.304 690.441 75.072 690.441 80.896V112H677.289V82.816C677.289 79.68 676.329 77.152 674.409 75.232C672.553 73.312 670.057 72.352 666.921 72.352C664.745 72.352 662.761 72.8 660.969 73.696C659.241 74.528 657.801 75.744 656.649 77.344V112H643.497ZM705.344 97.888V73.024H695.072V61.984H705.344V49.216L718.496 46.24V61.984H732.704V73.024H718.496V95.2C718.496 97.568 719.008 99.232 720.032 100.192C721.056 101.152 722.848 101.632 725.408 101.632C726.624 101.632 727.776 101.568 728.864 101.44C729.952 101.248 731.136 100.928 732.416 100.48V111.232C731.008 111.68 729.312 112.032 727.328 112.288C725.344 112.608 723.648 112.768 722.24 112.768C716.672 112.768 712.448 111.52 709.568 109.024C706.752 106.464 705.344 102.752 705.344 97.888ZM783.579 105.76C780.507 108.256 777.339 110.08 774.075 111.232C770.875 112.384 767.291 112.96 763.323 112.96C759.547 112.96 755.995 112.288 752.667 110.944C749.403 109.6 746.555 107.776 744.123 105.472C741.755 103.168 739.867 100.448 738.459 97.312C737.115 94.112 736.443 90.688 736.443 87.04C736.443 83.456 737.083 80.096 738.363 76.96C739.707 73.76 741.531 71.008 743.835 68.704C746.139 66.336 748.859 64.48 751.995 63.136C755.195 61.792 758.587 61.12 762.171 61.12C765.691 61.12 768.955 61.824 771.963 63.232C775.035 64.576 777.659 66.432 779.835 68.8C782.075 71.168 783.803 74.016 785.019 77.344C786.299 80.608 786.939 84.16 786.939 88V91.456H749.691C750.587 94.592 752.315 97.12 754.875 99.04C757.435 100.96 760.443 101.92 763.899 101.92C766.075 101.92 768.123 101.568 770.043 100.864C771.963 100.16 773.595 99.168 774.939 97.888L783.579 105.76ZM761.883 71.968C758.875 71.968 756.283 72.896 754.107 74.752C751.931 76.544 750.427 78.976 749.595 82.048H774.075C773.243 79.104 771.707 76.704 769.467 74.848C767.291 72.928 764.763 71.968 761.883 71.968ZM794.997 112V61.984H808.149V67.456C809.749 65.28 811.669 63.648 813.909 62.56C816.213 61.408 818.741 60.832 821.493 60.832C822.773 60.896 823.829 61.024 824.661 61.216C825.557 61.344 826.325 61.6 826.965 61.984V73.504C826.005 73.056 824.949 72.736 823.797 72.544C822.645 72.288 821.461 72.16 820.245 72.16C817.685 72.16 815.317 72.8 813.141 74.08C811.029 75.36 809.365 77.216 808.149 79.648V112H794.997ZM834.09 132.064V61.984H847.05V66.112C849.034 64.512 851.242 63.328 853.674 62.56C856.106 61.728 858.634 61.312 861.258 61.312C864.778 61.312 868.074 61.984 871.146 63.328C874.282 64.672 877.002 66.496 879.306 68.8C881.61 71.104 883.402 73.824 884.682 76.96C886.026 80.096 886.698 83.456 886.698 87.04C886.698 90.624 886.026 93.984 884.682 97.12C883.338 100.256 881.514 102.976 879.21 105.28C876.906 107.584 874.154 109.408 870.954 110.752C867.818 112.032 864.458 112.672 860.874 112.672C858.442 112.672 856.042 112.352 853.674 111.712C851.37 111.008 849.226 110.016 847.242 108.736V132.064H834.09ZM859.146 72.544C856.778 72.544 854.57 72.96 852.522 73.792C850.474 74.56 848.714 75.712 847.242 77.248V96.928C848.65 98.336 850.378 99.456 852.426 100.288C854.538 101.12 856.778 101.536 859.146 101.536C863.242 101.536 866.698 100.16 869.514 97.408C872.33 94.592 873.738 91.136 873.738 87.04C873.738 82.944 872.298 79.52 869.418 76.768C866.602 73.952 863.178 72.544 859.146 72.544ZM894.747 112V61.984H907.899V67.456C909.499 65.28 911.419 63.648 913.659 62.56C915.963 61.408 918.491 60.832 921.243 60.832C922.523 60.896 923.579 61.024 924.411 61.216C925.307 61.344 926.075 61.6 926.715 61.984V73.504C925.755 73.056 924.699 72.736 923.547 72.544C922.395 72.288 921.211 72.16 919.995 72.16C917.435 72.16 915.067 72.8 912.891 74.08C910.779 75.36 909.115 77.216 907.899 79.648V112H894.747ZM940.368 56.032C938.32 56.032 936.56 55.296 935.088 53.824C933.616 52.352 932.88 50.592 932.88 48.544C932.88 46.496 933.616 44.736 935.088 43.264C936.56 41.792 938.32 41.056 940.368 41.056C942.416 41.056 944.176 41.792 945.648 43.264C947.12 44.736 947.856 46.496 947.856 48.544C947.856 50.592 947.12 52.352 945.648 53.824C944.176 55.296 942.416 56.032 940.368 56.032ZM946.992 61.984V112H933.84V61.984H946.992ZM953.054 106.048L959.582 97.312C962.526 99.232 965.31 100.672 967.934 101.632C970.558 102.528 973.182 102.976 975.806 102.976C978.75 102.976 981.086 102.496 982.814 101.536C984.606 100.576 985.502 99.296 985.502 97.696C985.502 96.416 984.99 95.392 983.966 94.624C983.006 93.856 981.438 93.312 979.262 92.992L969.662 91.552C964.734 90.784 960.958 89.184 958.334 86.752C955.774 84.32 954.494 81.088 954.494 77.056C954.494 72.256 956.382 68.416 960.158 65.536C963.934 62.656 968.99 61.216 975.326 61.216C978.974 61.216 982.526 61.76 985.982 62.848C989.438 63.872 992.734 65.408 995.87 67.456L989.534 75.904C986.782 74.304 984.158 73.12 981.662 72.352C979.166 71.52 976.638 71.104 974.078 71.104C971.71 71.104 969.79 71.552 968.318 72.448C966.91 73.344 966.206 74.528 966.206 76C966.206 77.344 966.718 78.4 967.742 79.168C968.83 79.872 970.59 80.384 973.022 80.704L982.622 82.144C987.486 82.848 991.23 84.448 993.854 86.944C996.542 89.44 997.886 92.608 997.886 96.448C997.886 98.816 997.31 101.024 996.158 103.072C995.07 105.056 993.566 106.784 991.646 108.256C989.726 109.728 987.422 110.88 984.734 111.712C982.046 112.544 979.134 112.96 975.998 112.96C971.454 112.96 967.198 112.384 963.23 111.232C959.262 110.016 955.87 108.288 953.054 106.048ZM1049.73 105.76C1046.66 108.256 1043.49 110.08 1040.23 111.232C1037.03 112.384 1033.45 112.96 1029.48 112.96C1025.7 112.96 1022.15 112.288 1018.82 110.944C1015.56 109.6 1012.71 107.776 1010.28 105.472C1007.91 103.168 1006.02 100.448 1004.61 97.312C1003.27 94.112 1002.6 90.688 1002.6 87.04C1002.6 83.456 1003.24 80.096 1004.52 76.96C1005.86 73.76 1007.69 71.008 1009.99 68.704C1012.29 66.336 1015.01 64.48 1018.15 63.136C1021.35 61.792 1024.74 61.12 1028.33 61.12C1031.85 61.12 1035.11 61.824 1038.12 63.232C1041.19 64.576 1043.81 66.432 1045.99 68.8C1048.23 71.168 1049.96 74.016 1051.17 77.344C1052.45 80.608 1053.09 84.16 1053.09 88V91.456H1015.85C1016.74 94.592 1018.47 97.12 1021.03 99.04C1023.59 100.96 1026.6 101.92 1030.05 101.92C1032.23 101.92 1034.28 101.568 1036.2 100.864C1038.12 100.16 1039.75 99.168 1041.09 97.888L1049.73 105.76ZM1028.04 71.968C1025.03 71.968 1022.44 72.896 1020.26 74.752C1018.09 76.544 1016.58 78.976 1015.75 82.048H1040.23C1039.4 79.104 1037.86 76.704 1035.62 74.848C1033.45 72.928 1030.92 71.968 1028.04 71.968ZM275.056 200.48L279.952 195.392C283.408 199.04 287.088 201.824 290.992 203.744C294.96 205.6 299.12 206.528 303.472 206.528C308.72 206.528 313.04 205.28 316.432 202.784C319.824 200.288 321.52 197.12 321.52 193.28C321.52 189.824 320.304 187.168 317.872 185.312C315.504 183.456 311.568 182.08 306.064 181.184L296.368 179.648C289.904 178.624 285.136 176.736 282.064 173.984C278.992 171.168 277.456 167.392 277.456 162.656C277.456 157.088 279.632 152.576 283.984 149.12C288.336 145.664 294.032 143.936 301.072 143.936C305.744 143.936 310.384 144.704 314.992 146.24C319.6 147.776 323.792 149.984 327.568 152.864L323.344 158.624C319.696 155.872 315.984 153.792 312.208 152.384C308.432 150.976 304.624 150.272 300.784 150.272C295.984 150.272 292.08 151.392 289.072 153.632C286.128 155.808 284.656 158.624 284.656 162.08C284.656 165.216 285.712 167.616 287.824 169.28C289.936 170.944 293.424 172.16 298.288 172.928L307.888 174.464C315.184 175.68 320.496 177.76 323.824 180.704C327.216 183.648 328.912 187.712 328.912 192.896C328.912 195.84 328.272 198.56 326.992 201.056C325.776 203.488 324.016 205.6 321.712 207.392C319.472 209.12 316.752 210.496 313.552 211.52C310.416 212.48 306.96 212.96 303.184 212.96C297.872 212.96 292.752 211.904 287.824 209.792C282.96 207.616 278.704 204.512 275.056 200.48ZM336.34 187.904C336.34 184.448 336.98 181.184 338.26 178.112C339.54 175.04 341.268 172.384 343.444 170.144C345.684 167.904 348.308 166.144 351.316 164.864C354.324 163.584 357.524 162.944 360.916 162.944C364.308 162.944 367.476 163.584 370.42 164.864C373.428 166.144 376.02 167.904 378.196 170.144C380.436 172.384 382.196 175.04 383.476 178.112C384.756 181.184 385.396 184.448 385.396 187.904C385.396 191.424 384.756 194.72 383.476 197.792C382.196 200.864 380.436 203.52 378.196 205.76C376.02 208 373.428 209.76 370.42 211.04C367.476 212.32 364.308 212.96 360.916 212.96C357.524 212.96 354.324 212.32 351.316 211.04C348.308 209.76 345.684 208 343.444 205.76C341.268 203.52 339.54 200.864 338.26 197.792C336.98 194.72 336.34 191.424 336.34 187.904ZM360.916 206.624C363.348 206.624 365.62 206.144 367.732 205.184C369.908 204.224 371.764 202.912 373.3 201.248C374.9 199.52 376.148 197.536 377.044 195.296C377.94 192.992 378.388 190.528 378.388 187.904C378.388 185.28 377.94 182.848 377.044 180.608C376.148 178.304 374.9 176.32 373.3 174.656C371.764 172.992 369.908 171.68 367.732 170.72C365.62 169.76 363.348 169.28 360.916 169.28C358.484 169.28 356.18 169.76 354.004 170.72C351.892 171.68 350.036 172.992 348.436 174.656C346.9 176.32 345.652 178.304 344.692 180.608C343.796 182.848 343.348 185.28 343.348 187.904C343.348 190.528 343.796 192.992 344.692 195.296C345.588 197.536 346.804 199.52 348.34 201.248C349.94 202.912 351.828 204.224 354.004 205.184C356.18 206.144 358.484 206.624 360.916 206.624ZM387.382 163.904H398.71V154.784C398.71 150.112 399.99 146.528 402.55 144.032C405.11 141.472 408.79 140.192 413.59 140.192C414.87 140.192 416.022 140.256 417.046 140.384C418.07 140.512 419.062 140.736 420.022 141.056V147.392C418.934 147.072 417.942 146.848 417.046 146.72C416.15 146.528 415.158 146.432 414.07 146.432C411.254 146.432 409.142 147.136 407.734 148.544C406.39 149.888 405.718 152.032 405.718 154.976V163.904H420.022V169.952H405.718V212H398.71V169.952H387.382V163.904ZM434.594 201.248V169.952H424.226V163.904H434.594V151.712L441.602 149.888V163.904H456.098V169.952H441.602V199.424C441.602 201.984 442.178 203.84 443.33 204.992C444.482 206.08 446.37 206.624 448.994 206.624C450.338 206.624 451.522 206.528 452.546 206.336C453.634 206.144 454.786 205.824 456.002 205.376V211.616C454.786 212.064 453.41 212.384 451.874 212.576C450.402 212.768 448.962 212.864 447.554 212.864C443.394 212.864 440.194 211.872 437.954 209.888C435.714 207.904 434.594 205.024 434.594 201.248ZM480.386 212H473.474L459.938 163.904H466.946L477.314 202.304L489.314 163.904H495.65L507.554 202.304L518.018 163.904H524.738L511.106 212H504.29L492.386 173.504L480.386 212ZM547.122 212.864C541.874 212.864 537.586 211.52 534.258 208.832C530.994 206.144 529.362 202.656 529.362 198.368C529.362 193.888 531.09 190.336 534.546 187.712C538.002 185.024 542.674 183.68 548.562 183.68C551.122 183.68 553.586 183.968 555.954 184.544C558.386 185.12 560.626 185.92 562.674 186.944V180.608C562.674 176.768 561.586 173.888 559.41 171.968C557.234 169.984 554.066 168.992 549.906 168.992C547.538 168.992 545.138 169.344 542.706 170.048C540.338 170.688 537.714 171.744 534.834 173.216L532.146 167.744C535.602 166.08 538.802 164.864 541.746 164.096C544.69 163.328 547.634 162.944 550.578 162.944C556.658 162.944 561.33 164.384 564.594 167.264C567.922 170.144 569.586 174.272 569.586 179.648V212H562.674V207.296C560.498 209.152 558.098 210.56 555.474 211.52C552.914 212.416 550.13 212.864 547.122 212.864ZM536.178 198.176C536.178 200.864 537.298 203.072 539.538 204.8C541.842 206.464 544.786 207.296 548.37 207.296C551.25 207.296 553.874 206.848 556.242 205.952C558.61 205.056 560.754 203.648 562.674 201.728V192.704C560.69 191.36 558.546 190.4 556.242 189.824C554.002 189.184 551.506 188.864 548.754 188.864C544.914 188.864 541.842 189.728 539.538 191.456C537.298 193.12 536.178 195.36 536.178 198.176ZM581.454 212V163.904H588.558V170.72C589.966 168.224 591.822 166.304 594.126 164.96C596.43 163.552 599.054 162.848 601.998 162.848C602.894 162.848 603.694 162.912 604.398 163.04C605.102 163.104 605.806 163.264 606.51 163.52V170.048C605.678 169.792 604.846 169.6 604.014 169.472C603.182 169.28 602.35 169.184 601.518 169.184C598.574 169.184 595.982 170.048 593.742 171.776C591.502 173.44 589.774 175.872 588.558 179.072V212H581.454ZM651.685 206.912C648.997 208.896 646.181 210.4 643.237 211.424C640.357 212.384 637.189 212.864 633.733 212.864C630.277 212.864 627.013 212.224 623.941 210.944C620.933 209.664 618.309 207.904 616.069 205.664C613.893 203.424 612.165 200.8 610.885 197.792C609.605 194.72 608.965 191.424 608.965 187.904C608.965 184.448 609.573 181.216 610.789 178.208C612.069 175.2 613.765 172.576 615.877 170.336C617.989 168.096 620.485 166.336 623.365 165.056C626.309 163.776 629.413 163.136 632.677 163.136C635.877 163.136 638.853 163.776 641.605 165.056C644.421 166.336 646.821 168.096 648.805 170.336C650.853 172.576 652.453 175.2 653.605 178.208C654.821 181.216 655.429 184.448 655.429 187.904V190.112H615.973C616.485 194.848 618.437 198.784 621.829 201.92C625.221 205.056 629.285 206.624 634.021 206.624C636.517 206.624 638.949 206.24 641.317 205.472C643.685 204.704 645.669 203.616 647.269 202.208L651.685 206.912ZM632.485 169.376C628.325 169.376 624.709 170.784 621.637 173.6C618.629 176.416 616.805 180.032 616.165 184.448H648.325C647.685 180.224 645.861 176.672 642.853 173.792C639.909 170.848 636.453 169.376 632.485 169.376ZM687.33 212V144.8H735.426V151.328H694.722V175.328H721.41V181.76H694.722V212H687.33ZM734.215 187.904C734.215 184.448 734.855 181.184 736.135 178.112C737.415 175.04 739.143 172.384 741.319 170.144C743.559 167.904 746.183 166.144 749.191 164.864C752.199 163.584 755.399 162.944 758.791 162.944C762.183 162.944 765.351 163.584 768.295 164.864C771.303 166.144 773.895 167.904 776.071 170.144C778.311 172.384 780.071 175.04 781.351 178.112C782.631 181.184 783.271 184.448 783.271 187.904C783.271 191.424 782.631 194.72 781.351 197.792C780.071 200.864 778.311 203.52 776.071 205.76C773.895 208 771.303 209.76 768.295 211.04C765.351 212.32 762.183 212.96 758.791 212.96C755.399 212.96 752.199 212.32 749.191 211.04C746.183 209.76 743.559 208 741.319 205.76C739.143 203.52 737.415 200.864 736.135 197.792C734.855 194.72 734.215 191.424 734.215 187.904ZM758.791 206.624C761.223 206.624 763.495 206.144 765.607 205.184C767.783 204.224 769.639 202.912 771.175 201.248C772.775 199.52 774.023 197.536 774.919 195.296C775.815 192.992 776.263 190.528 776.263 187.904C776.263 185.28 775.815 182.848 774.919 180.608C774.023 178.304 772.775 176.32 771.175 174.656C769.639 172.992 767.783 171.68 765.607 170.72C763.495 169.76 761.223 169.28 758.791 169.28C756.359 169.28 754.055 169.76 751.879 170.72C749.767 171.68 747.911 172.992 746.311 174.656C744.775 176.32 743.527 178.304 742.567 180.608C741.671 182.848 741.223 185.28 741.223 187.904C741.223 190.528 741.671 192.992 742.567 195.296C743.463 197.536 744.679 199.52 746.215 201.248C747.815 202.912 749.703 204.224 751.879 205.184C754.055 206.144 756.359 206.624 758.791 206.624ZM799.958 163.904V192.896C799.958 197.12 801.174 200.48 803.606 202.976C806.038 205.472 809.302 206.72 813.398 206.72C816.278 206.72 818.838 206.08 821.078 204.8C823.382 203.456 825.238 201.6 826.646 199.232V163.904H833.75V212H826.646V206.432C824.79 208.608 822.582 210.24 820.022 211.328C817.526 212.416 814.71 212.96 811.574 212.96C806.07 212.96 801.59 211.232 798.134 207.776C794.678 204.32 792.95 199.84 792.95 194.336V163.904H799.958ZM845.829 212V163.904H852.933V169.568C854.789 167.392 856.997 165.76 859.557 164.672C862.117 163.52 864.965 162.944 868.101 162.944C873.541 162.944 877.989 164.672 881.445 168.128C884.901 171.584 886.629 176.064 886.629 181.568V212H879.621V183.008C879.621 178.784 878.405 175.424 875.973 172.928C873.541 170.432 870.277 169.184 866.181 169.184C863.301 169.184 860.709 169.824 858.405 171.104C856.165 172.384 854.341 174.208 852.933 176.576V212H845.829ZM936.053 212V206.912C934.005 208.832 931.637 210.304 928.949 211.328C926.325 212.288 923.509 212.768 920.501 212.768C917.109 212.768 913.941 212.128 910.997 210.848C908.053 209.568 905.493 207.84 903.317 205.664C901.141 203.424 899.413 200.768 898.133 197.696C896.917 194.624 896.309 191.36 896.309 187.904C896.309 184.448 896.917 181.216 898.133 178.208C899.413 175.136 901.141 172.512 903.317 170.336C905.493 168.096 908.053 166.336 910.997 165.056C914.005 163.776 917.205 163.136 920.597 163.136C923.349 163.136 926.037 163.616 928.661 164.576C931.349 165.472 933.781 166.816 935.957 168.608V144.8L943.061 143.168V212H936.053ZM903.317 187.808C903.317 190.432 903.765 192.896 904.661 195.2C905.621 197.504 906.901 199.488 908.501 201.152C910.101 202.816 911.989 204.128 914.165 205.088C916.341 206.048 918.677 206.528 921.173 206.528C924.181 206.528 926.965 205.952 929.525 204.8C932.149 203.584 934.293 201.92 935.957 199.808V176C934.293 173.952 932.149 172.352 929.525 171.2C926.901 169.984 924.117 169.376 921.173 169.376C916.181 169.376 911.957 171.136 908.501 174.656C905.045 178.176 903.317 182.56 903.317 187.808ZM970.31 212.864C965.062 212.864 960.774 211.52 957.446 208.832C954.182 206.144 952.55 202.656 952.55 198.368C952.55 193.888 954.278 190.336 957.734 187.712C961.19 185.024 965.862 183.68 971.75 183.68C974.31 183.68 976.774 183.968 979.142 184.544C981.574 185.12 983.814 185.92 985.862 186.944V180.608C985.862 176.768 984.774 173.888 982.598 171.968C980.422 169.984 977.254 168.992 973.094 168.992C970.726 168.992 968.326 169.344 965.894 170.048C963.526 170.688 960.902 171.744 958.022 173.216L955.334 167.744C958.79 166.08 961.99 164.864 964.934 164.096C967.878 163.328 970.822 162.944 973.766 162.944C979.846 162.944 984.518 164.384 987.782 167.264C991.11 170.144 992.774 174.272 992.774 179.648V212H985.862V207.296C983.686 209.152 981.286 210.56 978.662 211.52C976.102 212.416 973.318 212.864 970.31 212.864ZM959.366 198.176C959.366 200.864 960.486 203.072 962.726 204.8C965.03 206.464 967.974 207.296 971.558 207.296C974.438 207.296 977.062 206.848 979.43 205.952C981.798 205.056 983.942 203.648 985.862 201.728V192.704C983.878 191.36 981.734 190.4 979.43 189.824C977.19 189.184 974.694 188.864 971.942 188.864C968.102 188.864 965.03 189.728 962.726 191.456C960.486 193.12 959.366 195.36 959.366 198.176ZM1008.72 201.248V169.952H998.351V163.904H1008.72V151.712L1015.73 149.888V163.904H1030.22V169.952H1015.73V199.424C1015.73 201.984 1016.3 203.84 1017.45 204.992C1018.61 206.08 1020.49 206.624 1023.12 206.624C1024.46 206.624 1025.65 206.528 1026.67 206.336C1027.76 206.144 1028.91 205.824 1030.13 205.376V211.616C1028.91 212.064 1027.53 212.384 1026 212.576C1024.53 212.768 1023.09 212.864 1021.68 212.864C1017.52 212.864 1014.32 211.872 1012.08 209.888C1009.84 207.904 1008.72 205.024 1008.72 201.248ZM1041.38 154.688C1040.1 154.688 1038.98 154.208 1038.02 153.248C1037.06 152.288 1036.58 151.168 1036.58 149.888C1036.58 148.544 1037.06 147.424 1038.02 146.528C1038.98 145.568 1040.1 145.088 1041.38 145.088C1042.73 145.088 1043.85 145.568 1044.74 146.528C1045.7 147.424 1046.18 148.544 1046.18 149.888C1046.18 151.168 1045.7 152.288 1044.74 153.248C1043.85 154.208 1042.73 154.688 1041.38 154.688ZM1044.93 163.904V212H1037.83V163.904H1044.93ZM1054.84 187.904C1054.84 184.448 1055.48 181.184 1056.76 178.112C1058.04 175.04 1059.77 172.384 1061.94 170.144C1064.18 167.904 1066.81 166.144 1069.82 164.864C1072.82 163.584 1076.02 162.944 1079.42 162.944C1082.81 162.944 1085.98 163.584 1088.92 164.864C1091.93 166.144 1094.52 167.904 1096.7 170.144C1098.94 172.384 1100.7 175.04 1101.98 178.112C1103.26 181.184 1103.9 184.448 1103.9 187.904C1103.9 191.424 1103.26 194.72 1101.98 197.792C1100.7 200.864 1098.94 203.52 1096.7 205.76C1094.52 208 1091.93 209.76 1088.92 211.04C1085.98 212.32 1082.81 212.96 1079.42 212.96C1076.02 212.96 1072.82 212.32 1069.82 211.04C1066.81 209.76 1064.18 208 1061.94 205.76C1059.77 203.52 1058.04 200.864 1056.76 197.792C1055.48 194.72 1054.84 191.424 1054.84 187.904ZM1079.42 206.624C1081.85 206.624 1084.12 206.144 1086.23 205.184C1088.41 204.224 1090.26 202.912 1091.8 201.248C1093.4 199.52 1094.65 197.536 1095.54 195.296C1096.44 192.992 1096.89 190.528 1096.89 187.904C1096.89 185.28 1096.44 182.848 1095.54 180.608C1094.65 178.304 1093.4 176.32 1091.8 174.656C1090.26 172.992 1088.41 171.68 1086.23 170.72C1084.12 169.76 1081.85 169.28 1079.42 169.28C1076.98 169.28 1074.68 169.76 1072.5 170.72C1070.39 171.68 1068.54 172.992 1066.94 174.656C1065.4 176.32 1064.15 178.304 1063.19 180.608C1062.3 182.848 1061.85 185.28 1061.85 187.904C1061.85 190.528 1062.3 192.992 1063.19 195.296C1064.09 197.536 1065.3 199.52 1066.84 201.248C1068.44 202.912 1070.33 204.224 1072.5 205.184C1074.68 206.144 1076.98 206.624 1079.42 206.624ZM1113.77 212V163.904H1120.87V169.568C1122.73 167.392 1124.93 165.76 1127.49 164.672C1130.05 163.52 1132.9 162.944 1136.04 162.944C1141.48 162.944 1145.93 164.672 1149.38 168.128C1152.84 171.584 1154.57 176.064 1154.57 181.568V212H1147.56V183.008C1147.56 178.784 1146.34 175.424 1143.91 172.928C1141.48 170.432 1138.21 169.184 1134.12 169.184C1131.24 169.184 1128.65 169.824 1126.34 171.104C1124.1 172.384 1122.28 174.208 1120.87 176.576V212H1113.77Z"
     fill="white"
     id="path1" />
  <path
     d="M47 43H215V147.009L189.011 121.02L169.601 140.43L130.781 101.61L111.371 121.019L72.5511 82.1993L47 107.75V43Z"
     fill="url(#paint0_linear_122_228)"
     id="path3" />
  <path
     d="M189.011 150.135L128.146 211H215V176.124L189.011 150.135Z"
     fill="url(#paint1_linear_122_228)"
     id="path4" />
  <path
     d="M130.781 130.725L155.043 154.988L99.0312 211H50.5058L130.781 130.725Z"
     fill="url(#paint2_linear_122_228)"
     id="path5" />
  <path
     d="M72.5511 111.314L47 136.866V185.391L96.8137 135.577L72.5511 111.314Z"
     fill="url(#paint3_linear_122_228)"
     id="path6" />
  <defs
     id="defs13">
    <linearGradient
       id="paint0_linear_122_228"
       x1="47"
       y1="43"
       x2="215"
       y2="211"
       gradientUnits="userSpaceOnUse">
      <stop
         stop-color="#10B981"
         id="stop6" />
      <stop
         offset="1"
         stop-color="#1054B9"
         id="stop7" />
    </linearGradient>
    <linearGradient
       id="paint1_linear_122_228"
       x1="47"
       y1="43"
       x2="215"
       y2="211"
       gradientUnits="userSpaceOnUse">
      <stop
         stop-color="#10B981"
         id="stop8" />
      <stop
         offset="1"
         stop-color="#1054B9"
         id="stop9" />
    </linearGradient>
    <linearGradient
       id="paint2_linear_122_228"
       x1="47"
       y1="43"
       x2="215"
       y2="211"
       gradientUnits="userSpaceOnUse">
      <stop
         stop-color="#10B981"
         id="stop10" />
      <stop
         offset="1"
         stop-color="#1054B9"
         id="stop11" />
    </linearGradient>
    <linearGradient
       id="paint3_linear_122_228"
       x1="47"
       y1="43"
       x2="215"
       y2="211"
       gradientUnits="userSpaceOnUse">
      <stop
         stop-color="#10B981"
         id="stop12" />
      <stop
         offset="1"
         stop-color="#1054B9"
         id="stop13" />
    </linearGradient>
  </defs>
</svg>
